<?xml version="1.0" encoding="UTF-8"?>
<svg width="48px" height="48px" viewBox="0 0 48 48" version="1.1" xmlns="http://www.w3.org/2000/svg" xmlns:xlink="http://www.w3.org/1999/xlink">
    <!-- Generator: Sketch 61.2 (89653) - https://sketch.com -->
    <title>Shape</title>
    <desc>Created with Sketch.</desc>
    <g id="Hifi" stroke="none" stroke-width="1" fill="inherit" fill-rule="evenodd">
        <g id="Desktop---Active-State" transform="translate(-978.000000, -1570.000000)" fill="inherit" fill-rule="nonzero">
            <g id="Group-8" transform="translate(165.000000, 1276.000000)">
                <g id="Group-7" transform="translate(0.000000, 186.000000)">
                    <g id="Group-11-Copy-4" transform="translate(760.000000, 88.000000)">
                        <path d="M99.608411,26.0200884 C99.3271606,25.8487014 98.9781612,25.830757 98.6807975,25.9728471 L91.0566425,29.5642822 C88.3686508,30.8302751 86.5646935,33.439165 86.3292196,36.4010828 L86.132564,38.8367548 L82.1822417,45.3981643 L82.1822417,42.5966472 C82.1822417,42.587492 82.1774809,42.5798014 82.1774809,42.5699138 C82.1760161,42.4736002 82.1606352,42.3776528 82.1309721,42.2857338 L80.2929571,36.7716888 L84.0458915,29.2683834 C84.2106866,28.9343986 84.1726006,28.5355944 83.9473806,28.238597 L78.0469826,20.3712776 C77.6895603,19.9369509 77.0475916,19.8746949 76.6128988,20.2321172 C76.5619954,20.2738653 76.5154865,20.3207404 76.4737385,20.3712776 L70.5729742,28.238597 C70.3495853,28.5366931 70.3133303,28.9351311 70.4795903,29.2683834 L74.2325247,36.7716888 L72.3945097,42.2857338 C72.3648466,42.3776528 72.3494657,42.4736002 72.3480008,42.5699138 L72.3480008,42.5966472 L72.3480008,46.5213347 L66.2212842,37.2221288 C66.2135937,37.2115087 66.2018749,37.2052831 66.194917,37.1957615 C66.1355907,37.1137302 66.0645457,37.0415866 65.983613,36.9811616 C65.9649362,36.9676118 65.9480905,36.9518647 65.9283151,36.9390474 C65.9089058,36.92623 65.9056099,36.9192719 65.8931588,36.912314 L62.2878075,34.8274724 L60.7911016,32.5558632 L58.6275247,29.2713131 C58.3792333,28.8948478 57.9064545,28.7355459 57.4809168,28.8849602 L53.6543739,30.2271249 C53.1427766,30.4091319 52.8750761,30.9712665 53.0570831,31.4828638 C53.0834503,31.5579371 53.1189728,31.6289821 53.1629182,31.6952664 L55.8681218,35.8023272 L57.360067,38.0728379 L57.8515227,42.2091956 C57.8540862,42.2223791 57.8573821,42.2355628 57.8614105,42.2483802 C57.865805,42.2692542 57.8709319,42.2901283 57.8771576,42.3102699 C57.8994964,42.414274 57.9386811,42.5142497 57.9932466,42.6054363 C58.0002046,42.615324 58.0002046,42.6281414 58.0071625,42.6380291 C58.0141206,42.6475506 72.6314485,64.8029739 72.7021273,64.8630325 C73.4213664,66.7523171 75.2330142,68.0007317 77.2545012,68 C77.6558688,68 78.0557717,67.950927 78.4454206,67.8546135 C79.712512,67.5436999 80.8027234,66.7394998 81.4732564,65.6199915 L94.5524964,43.9223325 L96.6175625,42.615324 C97.7026469,41.9253817 98.6130484,40.9941061 99.2788207,39.8940071 C100.12367,38.4947134 100.53456,36.8756927 100.458754,35.2427562 L100.075331,26.8228238 C100.063612,26.4939659 99.8885627,26.192574 99.608411,26.0200884 Z M92.4855994,43.5444023 L90.963991,46.0708948 L85.9102737,43.0225511 L87.4337131,40.4960586 L92.4855994,43.5444023 Z M74.3149223,58.4462764 L74.3149223,43.5799248 L80.2153203,43.5799248 L80.2153203,48.6603756 L74.3149223,58.4462764 Z M76.0075513,37.6795268 L78.5230574,37.6795268 L79.833728,41.6130034 L74.6965146,41.6130034 L76.0075513,37.6795268 Z M77.2651213,30.795485 C76.7220297,30.795485 76.2818437,30.3552988 76.2818437,29.8122073 C76.2818437,29.2691159 76.7220297,28.8289297 77.2651213,28.8289297 C77.8082128,28.8289297 78.248765,29.2691159 78.248765,29.8122073 C78.248765,30.3552988 77.8082128,30.795485 77.2651213,30.795485 Z M77.2651213,22.6007726 L82.0141507,28.9322014 L78.6241318,35.7126053 L78.2483988,35.7126053 L78.2483988,32.5814979 C79.7846557,32.0384064 80.5899546,30.3527354 80.0464968,28.8164786 C79.5034053,27.2802218 77.8181004,26.4752891 76.2818437,27.0183806 C74.7455869,27.5614721 73.9406543,29.2471432 74.4837457,30.7834 C74.7807432,31.6234889 75.4417547,32.2845005 76.2818437,32.5814979 L76.2818437,35.7126053 L75.9061107,35.7126053 L72.5160919,28.9322014 L77.2651213,22.6007726 Z M63.5299966,37.8179547 L63.2406896,38.0087508 L59.6188589,40.3946181 L59.2856065,37.6077493 C59.2672959,37.4561379 59.2141953,37.3111182 59.1299667,37.1836766 L58.0485444,35.5415847 L59.6906364,34.4597962 L60.7724248,36.1018881 C60.8566535,36.2293296 60.9690803,36.3351648 61.1009164,36.411703 L63.5299966,37.8179547 Z M57.4080407,30.9921405 L58.6077492,32.8144084 L56.9656573,33.8961968 L55.4905578,31.6641384 L57.4080407,30.9921405 Z M62.6565824,40.7469134 L65.1153258,39.1231321 L72.3480008,50.0951918 L72.3480008,60.8211573 L60.1930783,42.3714272 L62.6565824,40.7469134 Z M79.7916137,64.5982617 C78.9577503,65.9982879 77.1472011,66.457517 75.747175,65.6236536 C74.3471489,64.7901565 73.888286,62.9792411 74.7217831,61.579215 C74.7280087,61.5693272 74.7338681,61.5598058 74.7397275,61.5499181 L82.1653959,49.234595 L82.1822417,49.234595 L82.1822417,49.2082278 L84.8944033,44.7089545 L87.4208957,46.2353236 L89.9510502,47.7554672 L79.7916137,64.5982617 Z M97.599009,38.8744746 C97.0918063,39.7123663 96.3974695,40.422084 95.5705642,40.9472311 L93.8237358,42.0535557 L90.9720476,40.3367567 L88.1199932,38.6195914 L88.2822249,36.5545254 C88.4624009,34.2964659 89.8375247,32.307938 91.8864774,31.3422386 L98.1801865,28.3792221 L98.3054308,31.1199482 C98.2069199,31.1093281 98.1073104,31.1133565 98.0102644,31.1327657 L95.6284255,31.7230984 C93.411748,32.2643588 91.6956813,34.0185115 91.203127,36.2465416 C91.0844745,36.7764495 91.4177268,37.3019629 91.9476348,37.4206153 C92.0183135,37.4370949 92.0904572,37.4455178 92.1629671,37.4455178 C92.6229286,37.4447853 93.0213666,37.125449 93.1217085,36.6764737 C93.4542285,35.178303 94.6081605,33.998736 96.098641,33.6336233 L98.395885,33.0641645 L98.4991567,35.3262524 C98.5566518,36.5717373 98.2435411,37.8066021 97.599009,38.8744746 L97.599009,38.8744746 Z" id="Shape"></path>
                    </g>
                </g>
            </g>
        </g>
    </g>
</svg>
