<?xml version="1.0" encoding="UTF-8"?>
<svg width="40px" height="40px" viewBox="0 0 40 40" version="1.1" xmlns="http://www.w3.org/2000/svg" xmlns:xlink="http://www.w3.org/1999/xlink">
    <!-- Generator: Sketch 61.2 (89653) - https://sketch.com -->
    <title>Combined Shape</title>
    <desc>Created with Sketch.</desc>
    <g id="Hifi" stroke="none" stroke-width="1" fill="inherit" fill-rule="evenodd">
        <g id="Desktop---Active-State" transform="translate(-601.000000, -1530.000000)" fill="inherit" fill-rule="nonzero">
            <g id="Group-8" transform="translate(165.000000, 1276.000000)">
                <g id="Group-7" transform="translate(0.000000, 186.000000)">
                    <g id="Group-11-Copy-3" transform="translate(380.000000, 44.000000)">
                        <path d="M75.9684783,24 C86.978913,24 95.9369565,32.9580435 95.9369565,43.9684783 C95.9369565,54.978913 86.978913,63.9369565 75.9684783,63.9369565 C64.9580435,63.9369565 56,54.978913 56,43.9684783 C56,32.9580435 64.9580435,24 75.9684783,24 Z M83.7726087,59.5788406 C78.91,57.1765942 73.0271014,57.1765942 68.1644928,59.5788406 C70.5168841,60.7598551 73.1618116,61.4410145 75.9684783,61.4410145 C78.7751449,61.4410145 81.4202174,60.7598551 83.7726087,59.5788406 Z M77.2165217,26.5593478 L77.2165217,30.2402899 L74.7204348,30.2402899 L74.7204348,26.5593478 C71.1548551,26.8131884 67.8863768,28.1354348 65.2284058,30.2157246 L65.2284058,30.2157246 L68.0256522,33.012971 L66.2608696,34.7777536 L63.3732609,31.8901449 C60.9064493,34.4614493 59.2269565,37.780942 58.6952899,41.4724638 L58.6952899,41.4724638 L63.4881159,41.4724638 L63.4881159,43.9685507 L58.4960145,43.9685507 C58.4960145,49.773913 61.3531884,54.9124638 65.7231159,58.0914493 C71.9404348,54.3771739 79.9965217,54.3771739 86.2138406,58.0914493 C90.5837681,54.9124638 93.440942,49.773913 93.440942,43.9684783 L93.440942,43.9684783 L88.4488406,43.9684783 L88.4488406,41.4723913 L93.2416667,41.4723913 C92.71,37.7808696 91.0305072,34.4613768 88.5636957,31.8900725 L88.5636957,31.8900725 L85.676087,34.7776812 L83.9113043,33.0128986 L86.7085507,30.2156522 C84.0505072,28.1353623 80.7821014,26.8131884 77.2165217,26.5593478 L77.2165217,26.5593478 Z M74.7802174,34.8507971 C75.1116667,33.8172464 76.8252899,33.8172464 77.1567391,34.8507971 C77.7917391,36.8288406 80.9605797,46.8057971 80.9605797,48.9605797 C80.9605797,51.7137681 78.7217391,53.9526812 75.9684783,53.9526812 C73.2152899,53.9526812 70.9763768,51.7138406 70.9763768,48.9605797 C70.9763768,46.8057971 74.1452174,36.8288406 74.7802174,34.8507971 Z M75.9684783,39.4175362 C74.7350725,43.4650725 73.4723913,47.9404348 73.4723913,48.9605797 C73.4723913,50.3365942 74.5924638,51.4566667 75.9684783,51.4566667 C77.3444928,51.4566667 78.4645652,50.3365942 78.4645652,48.9605797 C78.4645652,47.9404348 77.2018841,43.4650725 75.9684783,39.4175362 Z" id="Combined-Shape"></path>
                    </g>
                </g>
            </g>
        </g>
    </g>
</svg>
