<?xml version="1.0" encoding="UTF-8"?>
<svg width="40px" height="40px" viewBox="0 0 40 40" version="1.1" xmlns="http://www.w3.org/2000/svg" xmlns:xlink="http://www.w3.org/1999/xlink">
    <!-- Generator: Sketch 61.2 (89653) - https://sketch.com -->
    <title>Combined Shape</title>
    <desc>Created with Sketch.</desc>
    <g id="Hifi" stroke="none" stroke-width="1" fill="inherit" fill-rule="evenodd">
        <g id="Desktop---Active-State" transform="translate(-221.000000, -1486.000000)" fill="inherit" fill-rule="nonzero">
            <g id="Group-8" transform="translate(165.000000, 1276.000000)">
                <g id="Group-7" transform="translate(0.000000, 186.000000)">
                    <g id="Group-11">
                        <path d="M92.40625,35.71875 C93.0535278,35.71875 93.578125,36.2433472 93.578125,36.890625 L93.578125,36.890625 L93.578125,61.65625 L94.828125,61.65625 C95.4754028,61.65625 96,62.1808472 96,62.828125 C96,63.4754028 95.4754028,64 94.828125,64 L94.828125,64 L57.171875,64 C56.5245972,64 56,63.4754028 56,62.828125 C56,62.1808472 56.5245972,61.65625 57.171875,61.65625 L57.171875,61.65625 L58.421875,61.65625 L58.421875,48.609375 C58.421875,47.9620972 58.9464722,47.4375 59.59375,47.4375 L59.59375,47.4375 L64.28125,47.4375 C64.9285278,47.4375 65.453125,47.9620972 65.453125,48.609375 L65.453125,48.609375 L65.453125,61.65625 L67.796875,61.65625 L67.796875,53.296875 C67.796875,52.6495972 68.3214722,52.125 68.96875,52.125 L68.96875,52.125 L73.65625,52.125 C74.3035278,52.125 74.828125,52.6495972 74.828125,53.296875 L74.828125,53.296875 L74.828125,61.65625 L77.171875,61.65625 L77.171875,43.921875 C77.171875,43.2745972 77.6964722,42.75 78.34375,42.75 L78.34375,42.75 L83.03125,42.75 C83.6785278,42.75 84.203125,43.2745972 84.203125,43.921875 L84.203125,43.921875 L84.203125,61.65625 L86.546875,61.65625 L86.546875,36.890625 C86.546875,36.2433472 87.0714722,35.71875 87.71875,35.71875 L87.71875,35.71875 Z M91.234375,38.0625 L88.890625,38.0625 L88.890625,61.65625 L91.234375,61.65625 L91.234375,38.0625 Z M81.859375,45.09375 L79.515625,45.09375 L79.515625,61.65625 L81.859375,61.65625 L81.859375,45.09375 Z M72.484375,54.46875 L70.140625,54.46875 L70.140625,61.65625 L72.484375,61.65625 L72.484375,54.46875 Z M63.109375,49.78125 L60.765625,49.78125 L60.765625,61.65625 L63.109375,61.65625 L63.109375,49.78125 Z M90.0625,24 C92.0009766,24 93.578125,25.5771484 93.578125,27.515625 C93.578125,29.4541016 92.0009766,31.03125 90.0625,31.03125 C89.3425903,31.03125 88.6730347,30.8136597 88.1151734,30.44104 L88.1151734,30.44104 L84.0422973,33.4955445 C84.1466675,33.8275757 84.203125,34.1806641 84.203125,34.546875 C84.203125,36.4853516 82.6259766,38.0625 80.6875,38.0625 C80.1455078,38.0625 79.6315918,37.9389038 79.1726074,37.718872 L79.1726074,37.718872 L74.484497,42.4069824 C74.7045288,42.8659668 74.828125,43.3798828 74.828125,43.921875 C74.828125,45.8603516 73.2509766,47.4375 71.3125,47.4375 C69.3740234,47.4375 67.796875,45.8603516 67.796875,43.921875 C67.796875,43.7747803 67.8069458,43.6304321 67.824646,43.4882202 L67.824646,43.4882202 L64.3755493,41.7636719 C63.7429199,42.3737183 62.8835449,42.75 61.9375,42.75 C59.9990234,42.75 58.421875,41.1728516 58.421875,39.234375 C58.421875,37.2958984 59.9990234,35.71875 61.9375,35.71875 C63.8759766,35.71875 65.453125,37.2958984 65.453125,39.234375 C65.453125,39.3814697 65.4430542,39.5258179 65.425354,39.6680298 L65.425354,39.6680298 L68.8744507,41.3925781 C69.5070801,40.7825317 70.3664551,40.40625 71.3125,40.40625 C71.8544922,40.40625 72.3684082,40.5298462 72.8273926,40.749878 L72.8273926,40.749878 L77.515503,36.0617676 C77.2954712,35.6027832 77.171875,35.0888672 77.171875,34.546875 C77.171875,32.6083984 78.7490234,31.03125 80.6875,31.03125 C81.4074097,31.03125 82.0769653,31.2488403 82.6348266,31.62146 L82.6348266,31.62146 L86.7077027,28.5669555 C86.6033325,28.2349243 86.546875,27.8818359 86.546875,27.515625 C86.546875,25.5771484 88.1240234,24 90.0625,24 Z M71.3125,42.75 C70.6664429,42.75 70.140625,43.2758179 70.140625,43.921875 C70.140625,44.5679321 70.6664429,45.09375 71.3125,45.09375 C71.9585571,45.09375 72.484375,44.5679321 72.484375,43.921875 C72.484375,43.2758179 71.9585571,42.75 71.3125,42.75 Z M61.9375,38.0625 C61.2914429,38.0625 60.765625,38.5883179 60.765625,39.234375 C60.765625,39.8804321 61.2914429,40.40625 61.9375,40.40625 C62.5835571,40.40625 63.109375,39.8804321 63.109375,39.234375 C63.109375,38.5883179 62.5835571,38.0625 61.9375,38.0625 Z M80.6875,33.375 C80.0414429,33.375 79.515625,33.9008179 79.515625,34.546875 C79.515625,35.1929321 80.0414429,35.71875 80.6875,35.71875 C81.3335571,35.71875 81.859375,35.1929321 81.859375,34.546875 C81.859375,33.9008179 81.3335571,33.375 80.6875,33.375 Z M90.0625,26.34375 C89.4164429,26.34375 88.890625,26.8695679 88.890625,27.515625 C88.890625,28.1616821 89.4164429,28.6875 90.0625,28.6875 C90.7085571,28.6875 91.234375,28.1616821 91.234375,27.515625 C91.234375,26.8695679 90.7085571,26.34375 90.0625,26.34375 Z" id="Combined-Shape"></path>
                    </g>
                </g>
            </g>
        </g>
    </g>
</svg>
