<?xml version="1.0" encoding="UTF-8"?>
<svg width="24px" height="24px" viewBox="0 0 24 24" version="1.1" xmlns="http://www.w3.org/2000/svg" xmlns:xlink="http://www.w3.org/1999/xlink">
    <!-- Generator: Sketch 61.2 (89653) - https://sketch.com -->
    <title>Shape</title>
    <desc>Created with Sketch.</desc>
    <g id="Hifi" stroke="none" stroke-width="1" fill="inherit" fill-rule="evenodd">
        <g id="Desktop---Active-State" transform="translate(-1251.000000, -2304.000000)" fill="inherit" fill-rule="nonzero">
            <g id="Group-16" transform="translate(0.000000, 2231.000000)">
                <g id="Group-14" transform="translate(163.000000, 71.000000)">
                    <g id="Group-13" transform="translate(382.000000, 1.000000)">
                        <g id="Group-19" transform="translate(562.000000, 1.000000)">
                            <path d="M156,2.163 C159.204,2.163 159.584,2.175 160.85,2.233 C164.102,2.381 165.621,3.924 165.769,7.152 C165.827,8.417 165.838,8.797 165.838,12.001 C165.838,15.206 165.826,15.585 165.769,16.85 C165.62,20.075 164.105,21.621 160.85,21.769 C159.584,21.827 159.206,21.839 156,21.839 C152.796,21.839 152.416,21.827 151.151,21.769 C147.891,21.62 146.38,20.07 146.232,16.849 C146.174,15.584 146.162,15.205 146.162,12 C146.162,8.796 146.175,8.417 146.232,7.151 C146.381,3.924 147.896,2.38 151.151,2.232 C152.417,2.175 152.796,2.163 156,2.163 L156,2.163 Z M156,0 C152.741,0 152.333,0.014 151.053,0.072 C146.695,0.272 144.273,2.69 144.073,7.052 C144.014,8.333 144,8.741 144,12 C144,15.259 144.014,15.668 144.072,16.948 C144.272,21.306 146.69,23.728 151.052,23.928 C152.333,23.986 152.741,24 156,24 C159.259,24 159.668,23.986 160.948,23.928 C165.302,23.728 167.73,21.31 167.927,16.948 C167.986,15.668 168,15.259 168,12 C168,8.741 167.986,8.333 167.928,7.053 C167.732,2.699 165.311,0.273 160.949,0.073 C159.668,0.014 159.259,0 156,0 Z M156,5.838 C152.597,5.838 149.838,8.597 149.838,12 C149.838,15.403 152.597,18.163 156,18.163 C159.403,18.163 162.162,15.404 162.162,12 C162.162,8.597 159.403,5.838 156,5.838 Z M156,16 C153.791,16 152,14.21 152,12 C152,9.791 153.791,8 156,8 C158.209,8 160,9.791 160,12 C160,14.21 158.209,16 156,16 Z M162.406,4.155 C161.61,4.155 160.965,4.8 160.965,5.595 C160.965,6.39 161.61,7.035 162.406,7.035 C163.201,7.035 163.845,6.39 163.845,5.595 C163.845,4.8 163.201,4.155 162.406,4.155 Z" id="Shape"></path>
                        </g>
                    </g>
                </g>
            </g>
        </g>
    </g>
</svg>
