<?xml version="1.0" encoding="UTF-8"?>
<svg width="24px" height="24px" viewBox="0 0 24 24" version="1.1" xmlns="http://www.w3.org/2000/svg" xmlns:xlink="http://www.w3.org/1999/xlink">
    <!-- Generator: Sketch 61.2 (89653) - https://sketch.com -->
    <title>Path</title>
    <desc>Created with Sketch.</desc>
    <g id="Hifi" stroke="none" stroke-width="1" fill="inherit" fill-rule="evenodd">
        <g id="Desktop---Active-State" transform="translate(-1203.000000, -2304.000000)" fill="inherit" fill-rule="nonzero">
            <g id="Group-16" transform="translate(0.000000, 2231.000000)">
                <g id="Group-14" transform="translate(163.000000, 71.000000)">
                    <g id="Group-13" transform="translate(382.000000, 1.000000)">
                        <g id="Group-19" transform="translate(562.000000, 1.000000)">
                            <path d="M108,-1.77635684e-15 C101.373,-1.77635684e-15 96,5.372 96,12 C96,17.084 99.163,21.426 103.627,23.174 C103.522,22.225 103.427,20.769 103.669,19.733 C103.887,18.796 105.076,13.768 105.076,13.768 C105.076,13.768 104.717,13.049 104.717,11.986 C104.717,10.318 105.684,9.072 106.888,9.072 C107.911,9.072 108.406,9.841 108.406,10.762 C108.406,11.791 107.751,13.33 107.412,14.757 C107.129,15.951 108.011,16.926 109.189,16.926 C111.322,16.926 112.961,14.677 112.961,11.431 C112.961,8.558 110.897,6.549 107.949,6.549 C104.535,6.549 102.531,9.11 102.531,11.756 C102.531,12.787 102.928,13.894 103.424,14.494 C103.522,14.613 103.536,14.718 103.507,14.839 L103.174,16.199 C103.121,16.419 103,16.466 102.772,16.36 C101.273,15.662 100.336,13.471 100.336,11.711 C100.336,7.926 103.086,4.449 108.265,4.449 C112.428,4.449 115.663,7.416 115.663,11.38 C115.663,15.516 113.056,18.844 109.436,18.844 C108.22,18.844 107.077,18.213 106.686,17.466 L105.938,20.319 C105.667,21.362 104.936,22.669 104.446,23.465 C105.57,23.812 106.763,24 108,24 C114.627,24 120,18.627 120,12 C120,5.372 114.627,-1.77635684e-15 108,-1.77635684e-15 Z" id="Path"></path>
                        </g>
                    </g>
                </g>
            </g>
        </g>
    </g>
</svg>
