<?xml version="1.0" encoding="UTF-8"?>
<svg width="1110px" height="168px" viewBox="0 0 1110 168" version="1.1" xmlns="http://www.w3.org/2000/svg" xmlns:xlink="http://www.w3.org/1999/xlink">
    <!-- Generator: Sketch 61.2 (89653) - https://sketch.com -->
    <title>Path 2</title>
    <desc>Created with Sketch.</desc>
    <defs>
        <rect id="path-1" x="0" y="0" width="1110" height="168" rx="10"></rect>
    </defs>
    <g id="Hifi" stroke="none" stroke-width="1" fill="none" fill-rule="evenodd">
        <g id="Desktop" transform="translate(-165.000000, -716.000000)">
            <g id="Group-3" transform="translate(165.000000, 716.000000)">
                <g id="Path-2">
                    <mask id="mask-2" fill="white">
                        <use xlink:href="#path-1"></use>
                    </mask>
                    <use id="Mask" fill="#3A3054" xlink:href="#path-1"></use>
                    <path d="M647,-93.9235448 C647,-41.2004197 662.5,-3.43847368 720,20.9528834 C777.5,45.3442404 833.055011,23.0865352 888.786018,35.8470259 C944.517025,48.6075165 944.517025,130.80936 997,181.396007 C1049.48297,231.982655 1160.142,244.270319 1250.11922,192.948162 C1340.09644,141.626006 1380.8846,21.7964765 1354,-48.859049 C1327.1154,-119.514575 1275.59314,-184 1027,-184 C778.406857,-184 647,-146.64667 647,-93.9235448 Z" fill="#4B3F6B" mask="url(#mask-2)"></path>
                    <path d="M-134,119.076455 C-134,171.79958 -118.5,209.561526 -61,233.952883 C-3.5,258.34424 52.0550112,236.086535 107.786018,248.847026 C163.517025,261.607517 163.517025,343.80936 216,394.396007 C268.482975,444.982655 379.141996,457.270319 469.119216,405.948162 C559.096436,354.626006 599.884604,234.796476 573,164.140951 C546.115396,93.4854255 494.593143,29 246,29 C-2.59314278,29 -134,66.3533301 -134,119.076455 Z" id="Path-2-Copy" fill="#4B3F6B" mask="url(#mask-2)"></path>
                </g>
            </g>
        </g>
    </g>
</svg>