<?xml version="1.0" encoding="UTF-8"?>
<svg width="733px" height="482px" viewBox="0 0 733 482" version="1.1" xmlns="http://www.w3.org/2000/svg" xmlns:xlink="http://www.w3.org/1999/xlink">
    <!-- Generator: Sketch 61.2 (89653) - https://sketch.com -->
    <title>working_with_computer</title>
    <desc>Created with Sketch.</desc>
    <defs>
        <linearGradient x1="0%" y1="50%" x2="100%" y2="50%" id="linearGradient-1">
            <stop stop-color="#183866" offset="0%"></stop>
            <stop stop-color="#1A7FC1" offset="100%"></stop>
        </linearGradient>
        <linearGradient x1="-0.130208333%" y1="50.0571918%" x2="100%" y2="50.0571918%" id="linearGradient-2">
            <stop stop-color="#000000" offset="0%"></stop>
            <stop stop-color="#000000" stop-opacity="0" offset="99%"></stop>
        </linearGradient>
        <linearGradient x1="176.071638%" y1="-566.037206%" x2="310.393423%" y2="-534.628794%" id="linearGradient-3">
            <stop stop-color="#000000" offset="0%"></stop>
            <stop stop-color="#000000" stop-opacity="0" offset="99%"></stop>
        </linearGradient>
        <linearGradient x1="58.9279624%" y1="-257.997925%" x2="52.2691106%" y2="-277.344398%" id="linearGradient-4">
            <stop stop-color="#000000" offset="0%"></stop>
            <stop stop-color="#000000" stop-opacity="0" offset="99%"></stop>
        </linearGradient>
        <linearGradient x1="156.099434%" y1="-63.273128%" x2="8.10919636%" y2="-76.114034%" id="linearGradient-5">
            <stop stop-color="#000000" offset="0%"></stop>
            <stop stop-color="#000000" stop-opacity="0" offset="99%"></stop>
        </linearGradient>
        <linearGradient x1="2361.04418%" y1="-16584.9057%" x2="2162.6506%" y2="-16647.5472%" id="linearGradient-6">
            <stop stop-color="#000000" offset="0%"></stop>
            <stop stop-color="#000000" stop-opacity="0" offset="99%"></stop>
        </linearGradient>
        <linearGradient x1="241.391042%" y1="-426.052441%" x2="133.14204%" y2="-412.19478%" id="linearGradient-7">
            <stop stop-color="#000000" offset="0%"></stop>
            <stop stop-color="#000000" stop-opacity="0" offset="99%"></stop>
        </linearGradient>
        <linearGradient x1="55.0225011%" y1="16.910474%" x2="55.0225011%" y2="16.910474%" id="linearGradient-8">
            <stop stop-color="#000000" offset="0%"></stop>
            <stop stop-color="#000000" stop-opacity="0" offset="99%"></stop>
        </linearGradient>
        <linearGradient x1="106.849874%" y1="22.5018808%" x2="-35.8211355%" y2="19.269869%" id="linearGradient-9">
            <stop stop-color="#000000" offset="0%"></stop>
            <stop stop-color="#000000" stop-opacity="0" offset="100%"></stop>
        </linearGradient>
        <linearGradient x1="14.1689055%" y1="-41.3352765%" x2="114.167711%" y2="-41.3352765%" id="linearGradient-10">
            <stop stop-color="#183866" offset="0%"></stop>
            <stop stop-color="#1A7FC1" offset="100%"></stop>
        </linearGradient>
        <linearGradient x1="40.3859048%" y1="39.5152342%" x2="71.4296357%" y2="67.9766601%" id="linearGradient-11">
            <stop stop-color="#000000" offset="0%"></stop>
            <stop stop-color="#000000" stop-opacity="0" offset="99%"></stop>
        </linearGradient>
        <linearGradient x1="-12.5312903%" y1="44.9232329%" x2="93.6888417%" y2="53.4201188%" id="linearGradient-12">
            <stop stop-color="#000000" offset="0%"></stop>
            <stop stop-color="#000000" stop-opacity="0" offset="99%"></stop>
        </linearGradient>
        <linearGradient x1="53.7018062%" y1="42.271034%" x2="43.7210153%" y2="80.5947663%" id="linearGradient-13">
            <stop stop-color="#000000" offset="0%"></stop>
            <stop stop-color="#000000" stop-opacity="0" offset="99%"></stop>
        </linearGradient>
        <linearGradient x1="190.925804%" y1="-333.246243%" x2="102.153644%" y2="-335.028189%" id="linearGradient-14">
            <stop stop-color="#000000" offset="0%"></stop>
            <stop stop-color="#000000" stop-opacity="0" offset="99%"></stop>
        </linearGradient>
        <linearGradient x1="168.578122%" y1="-126.251648%" x2="111.529843%" y2="-126.941623%" id="linearGradient-15">
            <stop stop-color="#000000" offset="0%"></stop>
            <stop stop-color="#000000" stop-opacity="0" offset="99%"></stop>
        </linearGradient>
        <linearGradient x1="56.9885901%" y1="43.6176697%" x2="28.1275469%" y2="69.957568%" id="linearGradient-16">
            <stop stop-color="#000000" offset="0%"></stop>
            <stop stop-color="#000000" stop-opacity="0" offset="99%"></stop>
        </linearGradient>
        <linearGradient x1="58.0951772%" y1="-1473.57143%" x2="57.2118687%" y2="-1370.20408%" id="linearGradient-17">
            <stop stop-color="#000000" offset="0%"></stop>
            <stop stop-color="#000000" stop-opacity="0" offset="99%"></stop>
        </linearGradient>
        <linearGradient x1="-0.0398606622%" y1="49.9931927%" x2="99.9956739%" y2="49.9931927%" id="linearGradient-18">
            <stop stop-color="#ECC4D7" offset="0%"></stop>
            <stop stop-color="#EFD4D1" offset="42%"></stop>
            <stop stop-color="#F2EAC9" offset="100%"></stop>
        </linearGradient>
        <linearGradient x1="99.0319802%" y1="-163.287332%" x2="199.030233%" y2="-163.287332%" id="linearGradient-19">
            <stop stop-color="#ECC4D7" offset="0%"></stop>
            <stop stop-color="#EFD4D1" offset="42%"></stop>
            <stop stop-color="#F2EAC9" offset="100%"></stop>
        </linearGradient>
        <linearGradient x1="124.30571%" y1="-84.5640257%" x2="224.30571%" y2="-84.5640257%" id="linearGradient-20">
            <stop stop-color="#ECC4D7" offset="0%"></stop>
            <stop stop-color="#EFD4D1" offset="42%"></stop>
            <stop stop-color="#F2EAC9" offset="100%"></stop>
        </linearGradient>
        <linearGradient x1="128.890019%" y1="100.359927%" x2="24.0598258%" y2="153.094889%" id="linearGradient-21">
            <stop stop-color="#362958" stop-opacity="0.500600962" offset="0%"></stop>
            <stop stop-color="#34313D" stop-opacity="0" offset="100%"></stop>
        </linearGradient>
        <linearGradient x1="3990.94215%" y1="-34225.1869%" x2="3874.35961%" y2="-34268.3169%" id="linearGradient-22">
            <stop stop-color="#000000" offset="0%"></stop>
            <stop stop-color="#000000" stop-opacity="0" offset="99%"></stop>
        </linearGradient>
    </defs>
    <g id="Hifi" stroke="none" stroke-width="1" fill="none" fill-rule="evenodd">
        <g id="Desktop" transform="translate(-569.000000, -159.000000)">
            <g id="working_with_computer" transform="translate(569.000000, 159.000000)">
                <path d="M583.079484,92.2135693 C562.106893,69.8293739 545.871574,43.1067435 520.804695,24.8391817 C481.431446,-3.91514936 424.763846,-6.71871882 378.724376,11.3447857 C332.684907,29.4082902 296.819696,65.8192049 273.180618,107.047646 C260.746462,128.739821 250.978795,152.401592 232.757793,170.127959 C217.354569,185.103988 197.110062,194.659191 177.915131,205.066112 C146.966849,221.798808 117.162698,242.018222 97.1356707,269.761139 C77.1086432,297.504056 68.1541602,333.941587 80.9570852,365.20671 C89.5900768,386.304457 106.978983,403.090386 124.793393,418.288216 C145.756528,436.156535 168.289298,452.889232 194.292284,463.535698 C226.848023,476.781676 262.987447,479.629606 298.427154,480.978159 C361.255265,483.358184 424.18404,481.579364 486.745511,475.654925 C537.976122,470.810783 590.757457,462.542028 633.619834,435.775037 C693.663094,398.290604 724.620832,329.612024 731.589632,262.264252 C734.426322,235.328693 733.707694,207.337358 722.625694,182.344779 C696.121559,122.56487 624.608618,136.547229 583.079484,92.2135693 Z" id="Path" fill="#EFF1F7" fill-rule="nonzero"></path>
                <path d="M178.316697,202.334006 C178.316697,202.334006 161.717064,199.386607 157.066789,211.002825 C152.416514,222.619044 157.066789,262.735673 157.066789,262.735673 L219,307 L178.316697,202.334006 Z" id="Path" fill="#3F3D56" fill-rule="nonzero"></path>
                <path d="M256.20185,379.726752 L231.646813,386.734941 C228.079286,387.744149 224.336593,385.783431 223.275011,382.349129 L223.275011,382.349129 C222.227911,378.9107 224.262246,375.303443 227.82549,374.280276 L252.34677,367.26558 C255.912296,366.255871 259.654081,368.213205 260.718573,371.644885 L260.718573,371.644885 C261.776973,375.07778 259.758367,378.689715 256.20185,379.726752 L256.20185,379.726752 Z" id="Path" fill="#2BD0D0" fill-rule="nonzero"></path>
                <circle id="Oval" fill="#25233A" fill-rule="nonzero" cx="255" cy="395" r="11"></circle>
                <circle id="Oval" fill="#3F3D56" fill-rule="nonzero" cx="253.5" cy="397.5" r="5.5"></circle>
                <circle id="Oval" fill="#25233A" fill-rule="nonzero" cx="210" cy="384" r="11"></circle>
                <path d="M214,384.5 C214,387.537566 211.537566,390 208.5,390 C205.462434,390 203,387.537566 203,384.5 C203,381.462434 205.462434,379 208.5,379 C211.537566,379 214,381.462434 214,384.5 Z" id="Path" fill="url(#linearGradient-1)" fill-rule="nonzero"></path>
                <circle id="Oval" fill="#25233A" fill-rule="nonzero" cx="207" cy="399" r="11"></circle>
                <path d="M216,399.5 C216,402.537566 213.537566,405 210.5,405 C207.462434,405 205,402.537566 205,399.5 C205,396.462434 207.462434,394 210.5,394 C213.537566,394 216,396.462434 216,399.5 L216,399.5 Z" id="Path" fill="#3F3D56" fill-rule="nonzero"></path>
                <path d="M257.084563,390.874408 L206.29827,380.828375 C202.724238,380.111332 200.414009,376.697535 201.130193,373.191571 L201.130193,373.191571 C201.861885,369.691725 205.340564,367.42843 208.915437,368.126345 L259.70173,378.152896 C263.275762,378.869938 265.585991,382.283735 264.869807,385.789699 L264.869807,385.789699 C264.147426,389.297464 260.665806,391.571384 257.084563,390.874408 L257.084563,390.874408 Z" id="Path" fill="#2BD0D0" fill-rule="nonzero"></path>
                <path d="M226,310 L240,310 L240,368.999087 C240,372.865585 236.867491,376 233.003344,376 L233.003344,376 C229.139198,376 226.006689,372.865585 226.006689,368.999087 L226.006689,310 L226,310 Z" id="Path" fill="#2BD0D0" fill-rule="nonzero"></path>
                <path d="M231.186589,386.707868 L206.649587,393.733022 C203.081571,394.746985 199.335906,392.784286 198.274884,389.344743 L198.274884,389.344743 C197.228266,385.904379 199.261666,382.295093 202.823272,381.27135 L227.360274,374.265729 C230.924161,373.255452 234.664226,375.213887 235.728229,378.647498 L235.728229,378.647498 C236.76671,382.08182 234.73863,385.681196 231.186589,386.707868 Z" id="Path" fill="#2BD0D0" fill-rule="nonzero"></path>
                <path d="M236,386.259556 L232.875,386.811112 C231.94319,386.97448 230.967978,387.03265 230,386.982604 L231.304688,386.755493 C232.212493,386.598301 233.062955,386.342094 233.8125,386 L236,386.259556 Z" id="Path" fill="url(#linearGradient-2)" fill-rule="nonzero"></path>
                <path d="M261,372.738418 C260.99898,374.293055 260.483064,375.799188 259.540223,377 L239,372.650481 C239.51694,371.913257 239.890071,371.076565 240.098062,370.188233 L252.751615,366.264872 C254.397892,365.76769 256.165343,365.975874 257.66503,366.843612 C259.164718,367.71135 260.273755,369.167537 260.748092,370.891733 C260.912129,371.492373 260.996885,372.113702 261,372.738418 L261,372.738418 Z" id="Path" fill="url(#linearGradient-3)" fill-rule="nonzero"></path>
                <path d="M225.220709,371.102905 C225.073801,370.584684 224.999758,370.0546 225,369.522822 L225,311 L230.942779,311 L230.942779,374.070539 C230.884032,374.380305 230.9035,374.696539 231,375 C230.100156,374.684905 229.134834,374.511432 228.155314,374.488797 C227.464085,374.448955 226.770248,374.448955 226.07902,374.488797 L226.504088,374.389212 C226.765668,374.349378 225.564033,372.297925 225.220709,371.102905 Z" id="Path" fill="url(#linearGradient-4)" fill-rule="nonzero" opacity="0.31"></path>
                <path d="M262.288695,389.800126 C261.318718,390.323401 260.227812,390.597341 259.118944,390.596089 C258.672672,390.594999 258.227566,390.551653 257.789908,390.466664 L235.382361,386.059745 L233.515066,385.697355 C232.877516,386.174985 232.154127,386.532699 231.381963,386.752169 L230.272218,387.06926 L207.246669,393.734644 C203.733201,394.742447 200.0448,392.791671 199,389.373023 C200.996758,391.177842 204.028769,391.346255 206.223311,389.774241 C209.034222,387.878166 220.224705,385.030817 226.564207,383.516545 C229.560152,382.819069 231.852454,380.467541 232.411966,377.5177 C232.427798,377.343725 232.454428,377.170842 232.491708,377 C233.548291,378.113054 235.488684,379.362005 238.997339,380.423289 C247.636073,383.011788 261.664048,384.726668 261.664048,384.726668 C261.664048,384.726668 264.195862,387.146915 262.288695,389.800126 Z" id="Path" fill="url(#linearGradient-5)" fill-rule="nonzero" opacity="0.31"></path>
                <path d="M264,388 C263.471655,388.777844 262.793362,389.456137 262,390 C262.538153,389.479245 263.228916,388.784906 264,388 Z" id="Path" fill="url(#linearGradient-6)" fill-rule="nonzero"></path>
                <path d="M226.299408,370.558659 C226.576577,371.729455 227.162977,372.808574 228,373.688167 C227.7908,373.727781 227.574852,373.780599 227.358904,373.84002 L206.088013,380 C202.816766,379.187373 200.662168,376.13528 201.043664,372.854434 C201.42516,369.573587 204.225425,367.072977 207.599649,367 C208.052853,367.001113 208.504871,367.045336 208.949325,367.132047 L226.299408,370.558659 Z" id="Path" fill="url(#linearGradient-7)" fill-rule="nonzero"></path>
                <g id="Group" transform="translate(0.000000, 43.000000)"></g>
                <g id="Group" transform="translate(0.000000, 43.000000)"></g>
                <g id="Group" transform="translate(0.000000, 43.000000)"></g>
                <path d="M259,89.4073889 C259,89.4073889 258.723502,68.6020559 241.924579,70.3960808 C225.125655,72.1901056 226.41373,65.3018535 219.238276,66.0582894 C212.062822,66.8147252 203.727427,73.8435539 206.121493,82.5258309 C208.515559,91.2081078 199.78902,93.1494034 194.05675,99.73642 C188.32448,106.323437 195.405519,111.712205 205.062709,118.151951 C214.719898,124.591697 204.462506,122.924861 210.188033,133.106621 C215.913559,143.288381 235.295377,130.281701 235.295377,130.281701 L259,89.4073889 Z" id="Path" fill="#503164" fill-rule="nonzero"></path>
                <path d="M122.663837,434.601397 L134.393383,435 L134.393383,341.255286 C134.393383,341.255286 134.984175,317.013598 157.845836,314.582121 C180.707497,312.150645 388.042318,282.11593 388.042318,282.11593 C388.042318,282.11593 396.260301,281.245648 400.993276,297.017028 C405.726251,312.788409 410.333101,374.804347 410.333101,374.804347 L473.97269,383.380949 C473.97269,383.380949 475.652133,273.831637 452.670985,267.786163 C429.689838,261.740688 129.149274,292.546035 129.149274,292.546035 C129.149274,292.546035 106.85849,408.898166 122.663837,434.601397 Z" id="Path" fill="#2BD0D0" fill-rule="nonzero"></path>
                <path d="M122.663837,434.601397 L134.393383,435 L134.393383,341.255286 C134.393383,341.255286 134.984175,317.013598 157.845836,314.582121 C180.707497,312.150645 388.042318,282.11593 388.042318,282.11593 C388.042318,282.11593 396.260301,281.245648 400.993276,297.017028 C405.726251,312.788409 410.333101,374.804347 410.333101,374.804347 L473.97269,383.380949 C473.97269,383.380949 475.652133,273.831637 452.670985,267.786163 C429.689838,261.740688 129.149274,292.546035 129.149274,292.546035 C129.149274,292.546035 106.85849,408.898166 122.663837,434.601397 Z" id="Path" fill="url(#linearGradient-9)" fill-rule="nonzero" opacity="0.197288876"></path>
                <path d="M62,303.783824 C62,303.783824 67.7439752,272.028307 108.144152,263.705074 L393.326553,231.061569 C393.326553,231.061569 421.323458,229.901883 434.131329,237.648586 C446.9392,245.395288 465.219102,251.816636 472.714128,286.872288 C480.209153,321.927941 482,381.814128 482,381.814128 L474.909573,382.914173 C474.909573,382.914173 464.562459,274.473588 453.598497,267.608246 C442.634535,260.742905 146.19633,302.862702 146.19633,302.862702 C146.19633,302.862702 125.634756,306.951424 123.843909,337.394839 C122.053062,367.838254 123.843909,434 123.843909,434 L62,409.05681 L62,303.783824 Z" id="Path" fill="#2BD0D0" fill-rule="nonzero"></path>
                <path d="M355.424981,243.843861 C340.662818,241.943884 325.781232,240.568038 310.90628,241.124928 C299.726844,241.557337 288.62039,243.090422 277.53384,244.616956 L179.758564,258.119898 C178.099894,258.349206 176.209011,258.72265 175.379676,260.164012 C173.787353,262.915703 177.529312,265.628085 180.561361,266.676348 C213.071292,277.932076 247.80384,289.33194 281.269165,281.306174 C296.568737,277.637252 310.780221,270.017688 326.298737,267.370823 C341.817253,264.723958 357.747119,267.16117 373.232461,264.664993 C387.788949,262.319504 401.648795,255.656479 416.404323,255.590963 C420.929174,255.590963 425.586719,256.167508 429.879357,254.752352 C434.171995,253.337197 437.967032,249.01311 436.779424,244.702127 C422.926213,244.223857 407.374523,241.694922 393.786699,244.440061 C380.338203,247.152443 368.893381,243.843861 355.424981,243.843861 Z" id="Path" fill="url(#linearGradient-10)" fill-rule="nonzero" opacity="0.19"></path>
                <path d="M267,259.380086 L267.570215,261.494387 C267.570215,261.494387 284.45124,271.667452 284.345154,271.995201 C284.239067,272.322949 354.368919,255.75557 354.368919,255.75557 L356,251 L267,259.380086 Z" id="Path" fill="#2BD0D0" fill-rule="nonzero"></path>
                <path d="M267,259.380086 L267.570215,261.494387 C267.570215,261.494387 284.45124,271.667452 284.345154,271.995201 C284.239067,272.322949 354.368919,255.75557 354.368919,255.75557 L356,251 L267,259.380086 Z" id="Path" fill="url(#linearGradient-11)" fill-rule="nonzero"></path>
                <polygon id="Path" fill="#2BD0D0" fill-rule="nonzero" points="268 259.364426 330.106653 246 356 251.053882 285.442464 268"></polygon>
                <polygon id="Path" fill="url(#linearGradient-12)" fill-rule="nonzero" points="268 259.364426 330.106653 246 356 251.053882 285.442464 268"></polygon>
                <path d="M247.831808,270.484336 L262.289229,270.995895 C262.289229,270.995895 265.960851,271.224023 266.909845,268.279101 C267.858838,265.334179 261.019542,259.119426 260.286526,259.001906 C259.553511,258.884386 240.527833,264.221192 243.270096,269.557999 L247.831808,270.484336 Z" id="Path" fill="#2BD0D0" fill-rule="nonzero"></path>
                <path d="M247.831808,270.484336 L262.289229,270.995895 C262.289229,270.995895 265.960851,271.224023 266.909845,268.279101 C267.858838,265.334179 261.019542,259.119426 260.286526,259.001906 C259.553511,258.884386 240.527833,264.221192 243.270096,269.557999 L247.831808,270.484336 Z" id="Path" fill="url(#linearGradient-13)" fill-rule="nonzero"></path>
                <path d="M79,416.055939 L71.9415627,437.732567 C51.4688116,445.084291 34.0623769,437.732567 34.0623769,437.732567 L29,415 C29,415 54.535128,423.560409 79,416.055939 Z" id="Path" fill="#2BD0D0" fill-rule="nonzero"></path>
                <path d="M79,416.055939 L71.9415627,437.732567 C51.4688116,445.084291 34.0623769,437.732567 34.0623769,437.732567 L29,415 C29,415 54.535128,423.560409 79,416.055939 Z" id="Path" fill="url(#linearGradient-14)" fill-rule="nonzero"></path>
                <path d="M87,396 L84.7159299,412.943173 L78.9296191,415.950914 C54.2815237,423.371761 28.5145651,414.913309 28.5145651,414.913309 L24.0722143,411.629749 L22,396 L87,396 Z" id="Path" fill="#2BD0D0" fill-rule="nonzero"></path>
                <path d="M87,396 L84.7159299,412.943173 L78.9296191,415.950914 C54.2815237,423.371761 28.5145651,414.913309 28.5145651,414.913309 L24.0722143,411.629749 L22,396 L87,396 Z" id="Path" fill="url(#linearGradient-15)" fill-rule="nonzero"></path>
                <ellipse id="Oval" fill="#2BD0D0" fill-rule="nonzero" cx="54.5" cy="395" rx="32.5" ry="6"></ellipse>
                <ellipse id="Oval" fill="url(#linearGradient-16)" fill-rule="nonzero" cx="54.5" cy="395" rx="32.5" ry="6"></ellipse>
                <path d="M39.6413029,265.030277 C36.4586601,263.515186 33.0383095,262.372223 30.2848612,260.159394 C24.7383466,255.660638 23.331909,247.912412 21.5953217,240.961602 C19.8587344,234.010793 16.4978107,226.368889 9.65050648,224.375349 C7.088545,223.637739 4.08418296,223.930125 2.13629988,225.764182 C0.0827689005,227.697916 -0.33321969,230.87429 0.228034757,233.678536 C0.789289205,236.482782 2.15610886,238.994643 3.21258782,241.652696 C5.67964842,247.826279 6.43061391,254.559189 5.38497268,261.129583 C4.51998053,266.518786 2.45324357,271.981086 3.78044526,277.263968 C6.03206604,286.228253 17.250552,291.484554 17.5608927,300.721289 C17.7721885,306.954425 12.6746775,312.722401 13.8302014,318.855859 C14.6819875,323.394486 18.8352704,326.936342 19.0597722,331.548065 C19.310686,336.777785 14.3980588,341.203444 14.6357666,346.433164 C14.8734743,351.662884 20.0634272,355.158224 23.4507629,359.271562 C26.2904865,362.726205 27.9790348,366.991951 28.2775511,371.465382 C28.455832,374.256339 28.0992703,377.146972 29.0038804,379.791735 C29.6641798,381.725469 30.9847785,383.366817 32.0082425,385.107842 C33.1373544,386.988415 33.9891405,389.021826 35.3493572,390.762851 C38.8482239,395.201263 44.6824054,397.044308 50.0740327,395.414444 C51.1239086,388.463634 50.2060925,381.373277 50.4966243,374.34937 C51.0710847,360.740137 56.1884047,347.024581 52.9133199,333.814055 C51.7115751,328.969753 49.4005273,324.37132 48.9911417,319.40076 C48.6279771,314.961811 49.8033099,310.562732 50.6220811,306.183589 C52.3124475,297.139562 52.2860355,287.789859 51.5927212,278.646155 C51.0446727,271.389669 45.9735737,268.047167 39.6413029,265.030277 Z" id="Path" fill="#2BD0D0" fill-rule="nonzero"></path>
                <path d="M59.7518081,300.767259 C59.6986055,306.828795 61.0818729,313.096145 59.1399783,318.852281 C57.6702568,323.214197 54.4381994,326.786055 52.7689681,331.074941 C48.9184306,340.973901 54.0990329,352.074546 53.0416314,362.64406 C52.60271,366.999337 51.1063871,371.181996 50.1620412,375.457603 C48.9891532,380.870748 48.7016885,386.437739 49.3107997,391.942592 C49.181888,394.0145 50.5993861,395.86547 52.6359616,396.284591 C55.8944013,397.525545 59.2698929,398.435285 62.7112022,399 C61.5478373,392.591413 62.7731316,385.979338 66.15607,380.410403 C71.4297768,371.779519 81.6779258,365.963631 83.5865687,356.051392 C84.8767316,349.33922 81.8707852,342.52746 82.0835955,335.695783 C82.2368156,331.150041 83.8033625,326.764589 86.5659138,323.147805 C89.0464846,319.921183 92.4048981,317.424865 94.7125605,314.078738 C100.258931,306.012181 98.5298464,295.230214 96.8805661,285.583541 C95.2312858,275.936868 94.2736391,264.836223 100.790956,257.526528 C102.852557,255.216107 105.539288,253.483291 107.408029,251.01353 C111.571131,245.509682 110.52038,237.031498 105.678944,232.111894 C100.837509,227.19229 93.0433292,225.831266 86.4595086,227.995626 C83.6823331,228.812522 81.2311442,230.477178 79.4500673,232.75589 C76.1249054,237.469681 77.4549702,243.909649 78.8648388,249.513084 C80.0951487,254.379575 81.086047,259.996289 79.403515,264.902615 C78.1466038,268.554143 74.9610987,270.532607 72.2544169,273.075398 C64.5030599,280.235297 59.9917179,290.227408 59.7518081,300.767259 Z" id="Path" fill="#2BD0D0" fill-rule="nonzero"></path>
                <path d="M53.0622299,354.522129 C52.1243069,361.114866 50.7702633,367.76077 50.4928495,374.373444 L50.4928495,375.038035 C50.4780144,375.202063 50.4402117,375.363158 50.3805629,375.51654 C49.2090346,380.934115 48.9168329,386.506785 49.515296,392.018319 C49.55081,392.911083 49.7760355,393.785825 50.1758051,394.583638 C50.1427797,394.862766 50.1031491,395.135248 50.0635186,395.414376 C44.6701786,397.044429 38.8341438,395.20117 35.3341657,390.762244 C34.0131475,389.021017 33.1214602,386.98737 31.9919897,385.106579 C30.9351751,383.358707 29.6471824,381.717168 28.9866733,379.789856 C28.0817758,377.131495 28.4384507,374.253818 28.2601133,371.462538 C27.9615021,366.988588 26.2724175,362.722348 23.4317918,359.267305 C20.0433801,355.180074 14.8451735,351.750787 14.6139953,346.434064 C14.3828171,341.117341 19.2903997,336.777566 19.0394063,331.547239 C18.8148332,326.934982 14.660231,323.392715 13.8081742,318.853563 C12.6522833,312.719393 17.7712288,306.950749 17.5400506,300.716891 C17.2296114,291.479084 6.00756179,286.222174 3.75522577,277.25685 C2.43420758,271.973356 4.49499596,266.510423 5.36026288,261.120595 C6.41093456,254.558321 5.66892758,247.832103 3.21360831,241.661388 C2.15679376,239.003027 0.789539926,236.497521 0.228107194,233.686304 C-0.333325539,230.875086 0.0827951925,227.70499 2.13697848,225.764386 C4.11850578,223.930117 7.09079671,223.637697 9.65357201,224.375392 C16.5096564,226.369163 19.8584376,234.038537 21.6021816,240.990152 C23.3459256,247.941768 24.7462049,255.684246 30.2944813,260.190169 C33.035594,262.416546 36.4702413,263.54635 39.6538952,265.061616 C45.9947825,268.078857 51.0674924,271.421746 51.6091098,278.612614 C52.2696189,287.757378 52.3290648,297.108165 50.6381615,306.15324 C49.8191302,310.532891 48.6566342,314.932479 49.006704,319.371943 C49.3567738,323.811407 51.2788553,328.011618 52.5338226,332.318164 C52.6725295,332.803315 52.8112364,333.295112 52.930128,333.786909 C54.594611,340.625544 54.0595986,347.54393 53.0622299,354.522129 Z" id="Path" fill="#30C59B" fill-rule="nonzero"></path>
                <path d="M49.7184727,394 C49.4210368,393.228686 49.2496058,392.380245 49.2157429,391.511905 C48.7850717,386.151702 49.000117,380.732742 49.852534,375.465306 C49.8764735,375.310204 49.9052009,375.155102 49.9339284,375 C49.7615638,381.346259 50.3073848,387.744218 49.7184727,394 Z" id="Path" fill="url(#linearGradient-17)" fill-rule="nonzero"></path>
                <path d="M107.393216,251.01353 C105.521609,253.483291 102.830757,255.216107 100.765995,257.526528 C94.2386808,264.829584 95.1977963,275.936868 96.8496063,285.583541 C98.5014164,295.230214 100.233153,306.012181 94.6782754,314.078738 C92.3670735,317.398309 89.0035087,319.921183 86.5191331,323.147805 C83.7523445,326.764589 82.1833948,331.150041 82.0299397,335.695783 C81.8168029,342.52746 84.8273599,349.33922 83.5352182,356.051392 C81.6236477,365.963631 71.3597797,371.792797 66.077984,380.410403 C62.7025452,385.984132 61.4851331,392.594658 62.6544745,399 C59.2165537,398.435269 55.8447229,397.525506 52.5904222,396.284591 C51.7003317,396.021104 50.8930437,395.534171 50.2459176,394.870454 C50.1541294,394.762525 50.0716876,394.647033 49.9994782,394.525218 C49.5866258,393.734849 49.3481721,392.865589 49.3001232,391.975788 C48.70101,386.469146 49,380.90214 50.1859729,375.490799 C50.2192755,375.33146 50.2592387,375.17212 50.2992018,375.012781 C51.2449963,370.903152 52.6437064,366.873193 53.06998,362.677255 C53.2965994,359.956908 53.2430356,357.220576 52.9101274,354.511111 C53.9158665,347.540012 54.455369,340.628666 52.7569353,333.843463 C52.6370459,333.352166 52.4971749,332.86087 52.3573039,332.376212 C52.4838538,331.951307 52.6303854,331.526402 52.7968985,331.108136 C54.4686901,326.819251 57.7057049,323.247393 59.1776808,318.885476 C61.1158933,313.129341 59.7371648,306.861991 59.790449,300.800454 C59.8770358,290.330528 64.6126686,280.219115 72.2189874,273.075398 C74.9298208,270.532607 78.1202119,268.554143 79.379051,264.902615 C81.0641637,259.996289 80.0451035,254.379575 78.8395486,249.513084 C77.4208569,243.909649 76.075431,237.469681 79.4256747,232.75589 C81.0908058,230.418913 83.7150524,228.898549 86.4458673,227.995626 C93.0131443,225.831266 100.852581,227.19229 105.694783,232.111894 C110.536984,237.031498 111.562705,245.542877 107.393216,251.01353 Z" id="Path" fill="#30C59B" fill-rule="nonzero"></path>
                <path d="M225.573,146.146243 C225.573,146.146243 197.755917,150.446472 184.88878,181.123218 C172.021643,211.799965 178.713083,249.806494 178.937894,253.150374 C179.162706,256.494253 218.365817,271 229.573318,271 C240.780819,271 243.114888,259.771254 243.114888,259.771254 L223.311664,251.337991 L283.481728,244.38941 L294.285892,244.38941 L288.335006,254.421048 C288.335006,254.421048 300.078087,255.651595 307.926644,255.932481 C315.7752,256.213367 321.104549,240.69108 321.983958,232.973407 C322.863366,225.255734 287.316743,157.515432 282.007231,153.502777 C276.697719,149.490122 262.289964,139.685869 225.573,146.146243 Z" id="Path" fill="#2BD0D0" fill-rule="nonzero"></path>
                <path d="M258.392276,88.7763068 C258.392276,88.7763068 263.423703,91.606095 262.971212,100.761292 C262.518721,109.916489 259.682212,123.692563 256.818689,127.261425 C253.955166,130.830288 243.939587,132.228536 243.939587,132.228536 C243.939587,132.228536 249.403244,145.205611 253.468907,148.554749 C257.53457,151.903886 249.382983,164.241762 241.454265,160.193501 C233.525547,156.145239 224.333907,145.977977 224.333907,145.977977 C224.333907,145.977977 230.945675,133.733317 228.710236,127.288059 C226.474796,120.8428 217.938255,98.22447 224.333907,92.0455444 C230.72956,85.8666188 244.520396,77.0110465 258.392276,88.7763068 Z" id="Path" fill="url(#linearGradient-18)" fill-rule="nonzero"></path>
                <polygon id="Path" fill="#FFFFFF" fill-rule="nonzero" opacity="0.25" points="214.333789 190 210 244.055117 223.237756 251 234 249.12174 220.571819 232.618453"></polygon>
                <path d="M284,187 C284,187 301.908613,229.07734 293.970374,244 L287.85358,242.8392 L284,187 Z" id="Path" fill="#FFFFFF" fill-rule="nonzero" opacity="0.25"></path>
                <path d="M235.522289,258.045169 C235.522289,258.045169 228.756389,263.820107 231.776159,268.311725 C234.79593,272.803343 238.400822,272.675011 241.407141,270.666616 C244.413461,268.658221 250.31849,263.890689 257.353412,266.078749 C264.388333,268.266809 266.096622,269.65921 266.096622,269.65921 C266.096622,269.65921 269.802398,267.342819 268.840644,265.020011 C267.878891,262.697202 260.521144,255.170534 258.389146,254.195211 C256.257147,253.219888 247.406329,256.216439 247.406329,256.216439 C247.406329,256.216439 240.902725,254.458291 235.522289,258.045169 Z" id="Path" fill="url(#linearGradient-19)" fill-rule="nonzero"></path>
                <path d="M295.191069,245.597513 C295.191069,245.597513 288.805821,246.35705 287.192846,250.555215 C285.579871,254.75338 285,255.264341 285,255.264341 C285,255.264341 288.605865,255.954829 290.105532,254.000749 C291.605199,252.046669 293.164852,252.868349 293.164852,252.868349 L292.718285,255.374819 C292.718285,255.374819 302.516108,256.852463 306.941791,255.264341 C311.367474,253.67622 313.267052,251.811903 313.267052,251.811903 L315,247.572308 C315,247.572308 310.820929,244.541067 307.668296,244.071535 C304.515663,243.602004 295.191069,245.597513 295.191069,245.597513 Z" id="Path" fill="url(#linearGradient-20)" fill-rule="nonzero"></path>
                <path d="M328.892682,290 C328.892682,290 350.826749,306.687048 348.877353,329.258901 C346.927957,351.830754 344.064361,385.345925 344.064361,385.345925 C344.064361,385.345925 335.218136,389.067594 329.356504,385.345925 C323.494872,381.624256 319.945626,330.696513 317.041698,325.832816 C314.13777,320.96912 296.667148,299.042177 278,297.154471 L328.892682,290 Z" id="Path" fill="#25233A" fill-rule="nonzero"></path>
                <path d="M219,306.057611 C219,306.057611 229.444439,315.953034 248.062499,319.060197 C266.680558,322.167359 275.358804,324.75996 281.049131,340.665204 C286.739458,356.570447 292.197392,390.802014 293.983504,394.628244 C295.769616,398.454475 303.365571,396.501778 303.365571,396.501778 C303.365571,396.501778 307.661536,391.606842 307.661536,364.387831 C307.661536,326.442182 310.317464,318.66438 300.749482,309.131789 C291.181499,299.599198 282.476693,297 282.476693,297 L219,306.057611 Z" id="Path" fill="#3F3D56" fill-rule="nonzero"></path>
                <path d="M294,396 L295.81988,410.197106 L299.227894,410.197106 C299.227894,410.197106 321.175506,411.384132 321.863925,410.871553 C322.552344,410.358973 320.807441,399.628524 312.491886,399.932025 C304.176331,400.235526 303.631048,397.908685 303.631048,397.908685 L294,396 Z" id="Path" fill="#25233A" fill-rule="nonzero"></path>
                <path d="M331,386.155902 L334.517695,400 L372.955274,394.788419 C372.955274,394.788419 374.308234,385.694878 362.131598,386.596882 C358.918319,386.830735 356.523581,389.062361 352.660882,389.082405 C348.798182,389.10245 345.097838,387.538976 343.149576,385 L343.149576,385 L331,386.155902 Z" id="Path" fill="#25233A" fill-rule="nonzero"></path>
                <path d="M461.804172,212.337008 L319.560902,219.991264 C316.120938,220.172221 313.185036,217.5201 313,214.064531 C313,213.958222 313,213.845269 313,213.73896 L313,112.472891 C313.002684,108.372017 316.266812,105.024947 320.347946,104.938233 L462.0092,102.001444 C463.826546,101.964061 465.584204,102.653671 466.895316,103.918493 C468.206428,105.183315 468.963535,106.919684 469,108.745428 L469,204.715974 C468.995339,208.772487 465.83619,212.118312 461.804172,212.337008 Z" id="Path" fill="#2BD0D0" fill-rule="nonzero"></path>
                <path d="M469.803867,212.337337 L327.554571,219.991631 C324.114533,220.168725 321.181584,217.513724 321,214.058224 C321,213.951915 321,213.845605 321,213.739295 L321,112.47271 C320.99556,108.371455 324.259909,105.021268 328.341648,104.938014 L470.022132,102.00121 C473.799153,101.93077 476.92043,104.944471 477,108.738584 L477,204.716264 C476.995339,208.772797 473.836056,212.118639 469.803867,212.337337 Z" id="Path" fill="#2BD0D0" fill-rule="nonzero"></path>
                <path d="M469.803867,212.337337 L327.554571,219.991631 C324.114533,220.168725 321.181584,217.513724 321,214.058224 C321,213.951915 321,213.845605 321,213.739295 L321,112.47271 C320.99556,108.371455 324.259909,105.021268 328.341648,104.938014 L470.022132,102.00121 C473.799153,101.93077 476.92043,104.944471 477,108.738584 L477,204.716264 C476.995339,208.772797 473.836056,212.118639 469.803867,212.337337 Z" id="Path" fill="url(#linearGradient-21)" fill-rule="nonzero"></path>
                <path d="M427.772553,251.137765 L391.477848,255 C391.477848,255 380.425277,252.770256 381.023431,251.137765 C381.621586,249.505275 393.179267,247.932509 393.179267,247.932509 L393.179267,182.128527 L393.179267,182.128527 C393.079574,181.982532 391.557602,180.044778 387.390457,178.810456 L387.390457,178.810456 C386.583012,178.570983 385.761825,178.3804 384.931376,178.239748 C384.217322,178.135442 383.522885,177.925188 382.871065,177.61595 C380.392046,176.335175 383.130266,174.105431 386.978395,174.005889 C387.580771,173.984807 388.183798,174.020357 388.779506,174.112067 L416.693397,174.112067 C416.693397,174.112067 427.260799,177.085059 427.772553,191.923472 C428.284308,206.761885 427.772553,251.137765 427.772553,251.137765 Z" id="Path" fill="#3A3054" fill-rule="nonzero"></path>
                <path d="M398,251.276854 L391.321845,255 C391.321845,255 380.433834,252.770094 381.023083,251.137485 C381.612332,249.504875 393.017573,247.931995 393.017573,247.931995 L393.017573,182.123228 L393.017573,182.123228 C392.880081,181.970586 391.210542,180.225154 387.314952,178.804916 L387.314952,178.804916 C385.864566,178.287514 384.375823,177.888053 382.862849,177.610324 C380.420739,176.329455 383.11819,174.099549 386.909025,174 C390.1368,174.444654 396.494142,178.028431 396.906616,180.072511 C397.31909,182.116592 398,251.276854 398,251.276854 Z" id="Path" fill="#51466B" fill-rule="nonzero"></path>
                <path d="M263,389 C262.118692,390.001232 261.709265,390.370918 262.229723,389.546827 C262.499593,389.388369 262.757226,389.205473 263,389 Z" id="Path" fill="url(#linearGradient-22)" fill-rule="nonzero"></path>
            </g>
        </g>
    </g>
</svg>