<?xml version="1.0" encoding="UTF-8"?>
<svg width="121px" height="33px" viewBox="0 0 121 33" version="1.1" xmlns="http://www.w3.org/2000/svg" xmlns:xlink="http://www.w3.org/1999/xlink">
    <!-- Generator: Sketch 61.2 (89653) - https://sketch.com -->
    <title>Shortly</title>
    <desc>Created with Sketch.</desc>
    <g id="Hifi" stroke="none" stroke-width="1" fill="inherit" fill-rule="evenodd">
        <g id="Desktop---Active-State" transform="translate(-167.000000, -55.000000)" fill="inherit" fill-rule="nonzero">
            <g id="Group-15" transform="translate(167.000000, 48.000000)">
                <path d="M16.7146111,14.932 C16.6466108,14.8413329 16.4086132,14.6713346 16.0006111,14.422 C15.5926091,14.1726654 15.0826142,13.9120014 14.4706111,13.64 C13.8586081,13.3679986 13.1899481,13.130001 12.4646111,12.926 C11.7392742,12.721999 11.0139481,12.62 10.2886111,12.62 C8.29393447,12.62 7.29661111,13.28866 7.29661111,14.626 C7.29661111,15.034002 7.4042767,15.3739986 7.61961111,15.646 C7.83494552,15.9180014 8.15227568,16.1616656 8.57161111,16.377 C8.99094654,16.5923344 9.51794127,16.7906658 10.1526111,16.972 L11.5579433,17.3648886 C11.8148318,17.435407 12.0830542,17.5084441 12.3626111,17.584 C13.5186169,17.9013349 14.5612731,18.2469981 15.4906111,18.621 C16.4199491,18.9950019 17.2076079,19.4596639 17.8536111,20.015 C18.4996143,20.5703361 18.998276,21.2446627 19.3496111,22.038 C19.7009462,22.8313373 19.8766111,23.7833278 19.8766111,24.894 C19.8766111,26.2540068 19.6216137,27.4043286 19.1116111,28.345 C18.6016086,29.2856714 17.927282,30.0449971 17.0886111,30.623 C16.2499403,31.2010029 15.2866166,31.620332 14.1986111,31.881 C13.1106057,32.141668 11.9886169,32.272 10.8326111,32.272 C9.94860669,32.272 9.04194909,32.2040007 8.11261111,32.068 C7.18327313,31.9319993 6.27661553,31.733668 5.39261111,31.473 C4.50860669,31.212332 3.65294858,30.9006685 2.82561111,30.538 C1.99827364,30.1753315 1.23328129,29.7560024 0.530611111,29.28 L2.97861111,24.418 C3.06927823,24.5313339 3.36394195,24.7466651 3.86261111,25.064 C4.36128027,25.3813349 4.97894076,25.6986651 5.71561111,26.016 C6.45228146,26.3333349 7.27393991,26.6166654 8.18061111,26.866 C9.08728231,27.1153346 10.0052731,27.24 10.9346111,27.24 C12.906621,27.24 13.8926111,26.6393393 13.8926111,25.438 C13.8926111,24.9846644 13.7452793,24.6106681 13.4506111,24.316 C13.155943,24.0213319 12.7479471,23.7550012 12.2266111,23.517 C11.7921645,23.3186657 11.2908258,23.1321393 10.7225844,22.9574169 L9.02109189,22.4623202 C8.70557255,22.3698404 8.38007946,22.2737338 8.04461111,22.174 C6.93393889,21.8339983 5.97061519,21.4656687 5.15461111,21.069 C4.33860703,20.6723314 3.66428044,20.2133359 3.13161111,19.692 C2.59894178,19.1706641 2.20227908,18.5700034 1.94161111,17.89 C1.68094314,17.2099966 1.55061111,16.4166712 1.55061111,15.51 C1.55061111,14.2406603 1.78860873,13.1186715 2.26461111,12.144 C2.74061349,11.1693285 3.38660703,10.34767 4.20261111,9.679 C5.01861519,9.01032999 5.96493906,8.5060017 7.04161111,8.166 C8.11828316,7.8259983 9.25727177,7.656 10.4586111,7.656 C11.297282,7.656 12.124607,7.73533254 12.9406111,7.894 C13.7566152,8.05266746 14.5386074,8.25666542 15.2866111,8.506 C16.0346149,8.75533458 16.7316079,9.03866508 17.3776111,9.356 C18.0236143,9.67333492 18.6186084,9.99066508 19.1626111,10.308 L16.7146111,14.932 Z M40.1387222,32 L34.6987222,32 L34.6987222,21.97 C34.6987222,20.8139942 34.4720578,19.9640027 34.0187222,19.42 C33.5653866,18.8759973 32.9420595,18.604 32.1487222,18.604 C31.8313873,18.604 31.4857241,18.6776659 31.1117222,18.825 C30.7377204,18.9723341 30.3750573,19.1876653 30.0237222,19.471 C29.6723871,19.7543348 29.3493904,20.0886647 29.0547222,20.474 C28.7600541,20.8593353 28.5333897,21.2899976 28.3747222,21.766 L28.3747222,32 L22.9347222,32 L22.9347222,7.18 L28.3747222,7.18 L28.3747222,17.142 C29.0320588,16.0766613 29.8990502,15.2550029 30.9757222,14.677 C32.0523943,14.0989971 33.2367158,13.81 34.5287222,13.81 C35.7300616,13.81 36.6990519,14.0196646 37.4357222,14.439 C38.1723926,14.8583354 38.7390536,15.3909968 39.1357222,16.037 C39.5323909,16.6830032 39.7987215,17.4083293 39.9347222,18.213 C40.0707229,19.0176707 40.1387222,19.8053295 40.1387222,20.576 L40.1387222,32 Z M52.4788333,32.34 C50.9601591,32.34 49.6058393,32.0906692 48.4158333,31.592 C47.2258274,31.0933308 46.2228374,30.4190043 45.4068333,29.569 C44.5908293,28.7189958 43.9731688,27.7330056 43.5538333,26.611 C43.1344979,25.4889944 42.9248333,24.3160061 42.9248333,23.092 C42.9248333,21.8679939 43.1344979,20.6950056 43.5538333,19.573 C43.9731688,18.4509944 44.5908293,17.4650043 45.4068333,16.615 C46.2228374,15.7649958 47.2258274,15.0850026 48.4158333,14.575 C49.6058393,14.0649975 50.9601591,13.81 52.4788333,13.81 C53.9975076,13.81 55.3461608,14.0649975 56.5248333,14.575 C57.7035059,15.0850026 58.7008293,15.7649958 59.5168333,16.615 C60.3328374,17.4650043 60.9561645,18.4509944 61.3868333,19.573 C61.8175022,20.6950056 62.0328333,21.8679939 62.0328333,23.092 C62.0328333,24.3160061 61.8231688,25.4889944 61.4038333,26.611 C60.9844979,27.7330056 60.3668374,28.7189958 59.5508333,29.569 C58.7348293,30.4190043 57.7318393,31.0933308 56.5418333,31.592 C55.3518274,32.0906692 53.9975076,32.34 52.4788333,32.34 Z M48.5008333,23.092 C48.5008333,24.4973404 48.8748296,25.6249958 49.6228333,26.475 C50.3708371,27.3250043 51.3228276,27.75 52.4788333,27.75 C53.0455028,27.75 53.566831,27.6366678 54.0428333,27.41 C54.5188357,27.1833322 54.9324982,26.866002 55.2838333,26.458 C55.6351684,26.049998 55.9128323,25.5570029 56.1168333,24.979 C56.3208344,24.4009971 56.4228333,23.7720034 56.4228333,23.092 C56.4228333,21.6866596 56.0488371,20.5590043 55.3008333,19.709 C54.5528296,18.8589958 53.6121723,18.434 52.4788333,18.434 C51.9121638,18.434 51.3851691,18.5473322 50.8978333,18.774 C50.4104976,19.0006678 49.9911684,19.317998 49.6398333,19.726 C49.2884982,20.134002 49.0108344,20.6269971 48.8068333,21.205 C48.6028323,21.7830029 48.5008333,22.4119966 48.5008333,23.092 Z M76.2769444,18.808 C74.9622712,18.8306668 73.7722831,19.045998 72.7069444,19.454 C71.6416058,19.862002 70.8709468,20.4739959 70.3949444,21.29 L70.3949444,32 L64.9549444,32 L64.9549444,14.15 L69.9529444,14.15 L69.9529444,17.754 C70.5649475,16.5526607 71.3526063,15.6120034 72.3159444,14.932 C73.2792826,14.2519966 74.304939,13.9006668 75.3929444,13.878 L75.9369444,13.878 C76.0502783,13.878 76.1636105,13.8893332 76.2769444,13.912 L76.2769444,18.808 Z M90.3510556,31.048 C89.6030518,31.3653349 88.7473937,31.6599986 87.7840556,31.932 C86.8207174,32.2040014 85.8517271,32.34 84.8770556,32.34 C84.1970522,32.34 83.5567252,32.2550009 82.9560556,32.085 C82.3553859,31.9149992 81.8283912,31.6430019 81.3750556,31.269 C80.92172,30.8949981 80.5647235,30.4020031 80.3040556,29.79 C80.0433876,29.1779969 79.9130556,28.4413376 79.9130556,27.58 L79.9130556,18.264 L77.6350556,18.264 L77.6350556,14.15 L79.9130556,14.15 L79.9130556,8.472 L85.3530556,8.472 L85.3530556,14.15 L88.9910556,14.15 L88.9910556,18.264 L85.3530556,18.264 L85.3530556,25.71 C85.3530556,26.2993363 85.5003874,26.724332 85.7950556,26.985 C86.0897237,27.245668 86.46372,27.376 86.9170556,27.376 C87.3250576,27.376 87.7443867,27.3080007 88.1750556,27.172 C88.6057244,27.0359993 88.9797206,26.8886675 89.2970556,26.73 L90.3510556,31.048 Z M92.6271667,7.18 L98.0671667,7.18 L98.0671667,25.642 C98.0671667,27.0020068 98.6451609,27.682 99.8011667,27.682 C100.073168,27.682 100.373498,27.6423337 100.702167,27.563 C101.030835,27.4836663 101.331165,27.3646675 101.603167,27.206 L102.317167,31.286 C101.637163,31.6033349 100.855171,31.8526658 99.9711667,32.034 C99.0871622,32.2153342 98.2598372,32.306 97.4891667,32.306 C95.9251588,32.306 94.7238375,31.8980041 93.8851667,31.082 C93.0464958,30.2659959 92.6271667,29.087341 92.6271667,27.546 L92.6271667,7.18 Z M104.083278,34.686 C104.536613,34.8446675 104.961609,34.9579997 105.358278,35.026 C105.754946,35.0940003 106.111943,35.128 106.429278,35.128 C107.086614,35.128 107.596609,34.9013356 107.959278,34.448 C108.321946,33.9946644 108.65061,33.1786726 108.945278,32 L102.145278,14.15 L107.755278,14.15 L111.903278,27.342 L115.473278,14.15 L120.573278,14.15 L113.773278,34.89 C113.297275,36.3633407 112.447284,37.5589954 111.223278,38.477 C109.999272,39.3950046 108.548619,39.854 106.871278,39.854 C106.417942,39.854 105.958947,39.8143337 105.494278,39.735 C105.029609,39.6556663 104.55928,39.5253342 104.083278,39.344 L104.083278,34.686 Z" id="Shortly"></path>
            </g>
        </g>
    </g>
</svg>
